# xmcd
# 
# Track frame offsets:
#     150
#     4200
#     22377
#     43329
#     77325
#     110677
#     139125
#     169418
#     176303
#     182140
#     210300
#     241950
#     265650
#     293337
#     312675
#     330378
# 
# Disc length: 4440
# 
# Revision: 0
# Processed by: cddbd v1.5.2PL0 Copyright (c) Steve Scherf et al.
# Submitted via: fre:ac v1.0.27
# 
DISCID=df115610
DTITLE=Various Artist - The Auschwitz Volunteer: Beyond Bravery
DYEAR=2014
DGENRE=Audiobook
TTITLE0=Marek Probosz, Ken Kliban, Jarek Garlinski, John Lee - Credits
TTITLE1=Marek Probosz, Ken Kliban, Jarek Garlinski, John Lee - Introduction
TTITLE2=Marek Probosz, Ken Kliban, Jarek Garlinski, John Lee - Forward
TTITLE3=Marek Probosz, Ken Kliban, Jarek Garlinski, John Lee - The Report
TTITLE4=Marek Probosz, Ken Kliban, Jarek Garlinski, John Lee - The Mission
TTITLE5=Marek Probosz, Ken Kliban, Jarek Garlinski, John Lee - The Man
TTITLE6=Marek Probosz, Ken Kliban, Jarek Garlinski, John Lee - Timeline
TTITLE7=Marek Probosz, Ken Kliban, Jarek Garlinski, John Lee - 19 October 1945
TTITLE8=Marek Probosz, Ken Kliban, Jarek Garlinski, John Lee - Summer 1945
TTITLE9=Marek Probosz, Ken Kliban, Jarek Garlinski, John Lee - September 1940
TTITLE10=Marek Probosz, Ken Kliban, Jarek Garlinski, John Lee - All Eleven of Them...
TTITLE11=Marek Probosz, Ken Kliban, Jarek Garlinski, John Lee - On the Parade Ground...
TTITLE12=Marek Probosz, Ken Kliban, Jarek Garlinski, John Lee - One Had to Grit One's Teeth...
TTITLE13=Marek Probosz, Ken Kliban, Jarek Garlinski, John Lee - Before Everyone...
TTITLE14=Marek Probosz, Ken Kliban, Jarek Garlinski, John Lee - And That Time...
TTITLE15=Marek Probosz, Ken Kliban, Jarek Garlinski, John Lee - Disc 1 End
EXTD=
EXTT0=
EXTT1=
EXTT2=
EXTT3=
EXTT4=
EXTT5=
EXTT6=
EXTT7=
EXTT8=
EXTT9=
EXTT10=
EXTT11=
EXTT12=
EXTT13=
EXTT14=
EXTT15=
PLAYORDER=
